# xmcd CD database file
#
# Track frame offsets:
#	150
#	17985
#	34075
#	54175
#	68070
#	82447
#	100155
#	120827
#	137720
#	153835
#
# Disc length: 2287 seconds
#
# Revision: 1
# Processed by: cddbd v1.5.2PL0 Copyright (c) Steve Scherf et al.
# Submitted via: CDex 1.70beta3
#
DISCID=7a08ed0a
DTITLE=早見優 - LANAI
DYEAR=1995
DGENRE=JPop
TTITLE0=逢いたい気分
TTITLE1=Sail in the sunset
TTITLE2=Summer holy night
TTITLE3=ロコサーファー
TTITLE4=Someone's boy
TTITLE5=Rainy boy
TTITLE6=Still remember you
TTITLE7=You're so shy
TTITLE8=オレンジ・ムーンの恋
TTITLE9=Cover the moon
EXTD=YEAR: 1995
EXTT0=
EXTT1=
EXTT2=
EXTT3=
EXTT4=
EXTT5=
EXTT6=
EXTT7=
EXTT8=
EXTT9=
PLAYORDER=
